# xmcd
#
# Track frame offsets:
#	150
#	17330
#	34605
#	65362
#	88910
#
# Disc length: 1594 seconds
#
# Revision: 0
# Processed by: cddbd v1.4PL0 Copyright (c) Steve Scherf et al.
# Submitted via: EasyCDDAExtractor 4.6.9.1
#
DISCID=32063805
DTITLE=Network 25 - CD Single
DYEAR=2002
DGENRE=Dance
TTITLE0=DJ... (Bleeped Version)
TTITLE1=DJ... (Short Dick Mix)
TTITLE2=DJ... (Major Melon Mix)
TTITLE3=DJ... (Newcumer Mix)
TTITLE4=DJ... (Canale Grande Mix)
EXTD=
EXTT0=
EXTT1=
EXTT2=
EXTT3=
EXTT4=
PLAYORDER=
